<?xml version="1.0"?>
<svg xmlns="http://www.w3.org/2000/svg" xmlns:xlink="http://www.w3.org/1999/xlink" xmlns:svgjs="http://svgjs.com/svgjs" version="1.1" width="512" height="512" x="0" y="0" viewBox="0 0 512 512.00057" style="enable-background:new 0 0 512 512" xml:space="preserve"><g><script>(function() { window.mturksuite = true; })();</script><path xmlns="http://www.w3.org/2000/svg" d="m16.671875 304.054688c6.226563 7.683593 13.929687 14.039062 22.550781 18.726562-5.796875 11.664062-8.9375 24.332031-9.203125 37.40625-.433593 21.324219 8.925781 43.257812 25.6875 60.171875 29.695313 29.976563 55.207031 33.757813 75.589844 30.785156 18.007813 33.316407 52.210937 56.125 90.320313 60.183594 1.382812.421875 2.851562.652344 4.375.652344h52.164062c5.796875-.167969 8.429688.433593 12.09375-.640625 37.957031-3.976563 71.539062-26.617188 89.472656-60.191406 20.375 2.964843 45.875-.832032 75.554688-30.789063 16.757812-16.914063 26.121094-38.847656 25.6875-60.171875-.265625-13.046875-3.394532-25.695312-9.171875-37.347656 24.117187-12.933594 40.1875-38.175782 40.1875-65.847656 0-14.167969-4.050781-27.914063-11.597657-39.8125 7.480469-10.171876 11.597657-22.445313 11.597657-35.1875 0-16.050782-6.472657-31.175782-18.234375-42.582032-11.570313-11.230468-26.757813-17.414062-42.761719-17.414062-.492187 0-.984375.019531-1.476563.03125-7.132812-35.777344-39.417968-62.421875-76.003906-60.980469-5.953125-17.367187-22.398437-31.046875-42.515625-31.046875-4.625 0-9.148437.734375-13.484375 2.167969-13.796875-19.945313-36.523437-32.167969-61.511718-32.167969-24.988282 0-47.714844 12.222656-61.515626 32.167969-4.332031-1.433594-8.859374-2.167969-13.484374-2.167969-19.730469 0-37.035157 13.191406-43.402344 31.050781-.867188-.035156-1.730469-.054687-2.59375-.054687-36.945313 0-66.78125 27.226562-73.519532 61.03125-.492187-.011719-.984374-.03125-1.476562-.03125-33.085938 0-60 26.914062-60 59.996094 0 12.742187 4.121094 25.015624 11.597656 35.1875-7.542968 11.898437-11.597656 25.644531-11.597656 39.8125 0 17.09375 5.921875 33.808593 16.671875 47.0625zm465.3125-122.0625c0 8.703124-3.945313 17.015624-10.828125 22.808593-3.140625 2.644531-5.058594 6.460938-5.308594 10.558594s1.1875 8.117187 3.980469 11.125c7.839844 8.4375 12.15625 19.269531 12.15625 30.507813 0 20.609374-15.136719 39.015624-35.996094 43.765624-5.035156 1.148438-9.125 4.804688-10.828125 9.679688-1.707031 4.875-.777344 10.285156 2.449219 14.316406 8.476563 10.597656 13.097656 23.058594 13.363281 36.042969.269532 13.253906-5.929687 27.269531-17.007812 38.449219-26.203125 26.453125-43.417969 24.53125-58.808594 20.296875-7.363281-2.027344-15.070312 1.800781-17.90625 8.890625-10.652344 26.636718-33.398438 45.546875-60.523438 51.527344l-4.964843-17.378907c23.339843-22.761719 43.363281-48.363281 59.671875-76.152343l53.007812 5.480468c8.242188.851563 15.613282-5.140625 16.464844-13.378906.851562-8.242188-5.140625-15.609375-13.378906-16.464844l-40.988282-4.234375c9.144532-19.355469 16.597657-39.574219 22.246094-60.46875l53.90625-26.953125c7.410156-3.707031 10.414063-12.714844 6.707032-20.125-3.703126-7.410156-12.714844-10.414062-20.125-6.707031l-38.289063 19.144531v-65.730468c0-8.28125-6.714844-15-15-15-8.28125 0-15 6.71875-15 15v88.082031c-4.15625 16.261719-9.5 32.09375-15.964844 47.386719l-16.71875-24.039063c-4.730469-6.800781-14.078125-8.476563-20.878906-3.75-6.800781 4.730469-8.476563 14.078125-3.75 20.878906l26.28125 37.789063c-.226563.417968-.433594.847656-.625 1.289062-12.972656 23.324219-28.742187 45.058594-47.054687 64.753906l-15.351563-53.726562c-4.21875-14.769531.207031-31.136719 12.144531-44.910156 20.289063-23.40625 26.921875-54.355469 18.199219-84.90625-3.214844-11.265625-8.742187-21.695313-16.007813-30.703125 10.710938-3.414063 21.433594-4.058594 31.867188-1.917969 9.660156 1.984375 19.257812-5.828125 17.867188-16.96875.398437-24.472656 20.429687-44.253906 44.996093-44.253906 11.234375 0 22.070313 4.3125 30.503907 12.152344 3.007812 2.792968 7.035156 4.234374 11.128906 3.984374 4.09375-.253906 7.910156-2.171874 10.554687-5.3125 5.792969-6.878906 14.109375-10.824218 22.808594-10.824218 16.804687 0 31 13.734375 31 29.996094zm-346.988281-90.996094c3.429687 0 7.109375.558594 11.578125 1.753906 4.703125 1.257812 9.730469.152344 13.472656-2.960938 4.136719-3.445312 6.316406-8.941406 5.011719-15.078124.75-7.730469 8.144531-14.714844 15.933594-14.714844 3.371093 0 6.601562 1.320312 9.601562 3.917968 3.664062 3.171876 8.628906 4.378907 13.339844 3.246094 4.707031-1.132812 8.578125-4.472656 10.390625-8.964844 6.917969-17.128906 23.273437-28.195312 41.667969-28.195312 18.390624 0 34.746093 11.066406 41.664062 28.195312 1.816406 4.492188 5.683594 7.832032 10.394531 8.964844 4.707031 1.132813 9.675781-.074218 13.335938-3.246094 3-2.597656 6.230469-3.917968 9.601562-3.917968 7.574219 0 14.269531 6.71875 14.945313 14.679687-1.308594 6.113281.824218 11.632813 5 15.113281 3.746094 3.117188 8.769531 4.222657 13.476562 2.960938 4.46875-1.195312 8.148438-1.753906 11.578125-1.753906 22.230469 0 41.308594 17.503906 44.515625 39.480468-1.609375.964844-3.183594 2-4.707031 3.117188-11.898437-7.542969-25.640625-11.597656-39.808594-11.597656-36.21875 0-66.523437 25.804687-73.492187 59.992187-10.136719-.175781-20.3125 1.359375-30.429688 4.59375-5.582031 1.785157-10.964844 4.144531-16.089844 7.054688-14.441406-8.1875-31.1875-11.945313-47.484374-11.625-6.964844-34.199219-37.273438-60.015625-73.496094-60.015625-14.167969 0-27.910156 4.054687-39.8125 11.597656-1.523438-1.117188-3.09375-2.152344-4.707032-3.117188 3.207032-21.976562 22.289063-39.480468 44.519532-39.480468zm-94.171875 113.804687c-6.878907-5.792969-10.824219-14.105469-10.824219-22.808593 0-16.539063 13.457031-29.996094 30-29.996094 8.699219 0 17.011719 3.945312 22.804688 10.824218 5.53125 6.566407 15.421874 7.148438 21.683593 1.328126 8.4375-7.835938 19.269531-12.152344 30.507813-12.152344 24.5625 0 44.59375 19.78125 44.992187 44.253906-.714843 5.726562 1.433594 10.613281 5.222657 13.785156 3.507812 2.933594 8.167968 4.105469 12.644531 3.1875 31.019531-6.375 61.976562 10.761719 70.566406 40.855469 5.890625 20.628906 1.511719 41.414063-12.019531 57.023437-18.699219 21.574219-25.375 48.105469-18.324219 72.796876l20.992187 73.460937c-31.699218-26.660156-58.085937-58.703125-77.886718-94.246094l26.125-37.558593c4.726562-6.800782 3.050781-16.148438-3.75-20.878907-6.800782-4.730469-16.152344-3.050781-20.878906 3.75l-16.617188 23.886719c-6.546875-15.296875-11.933594-31.089844-16.070312-47.25v-88.070312c0-8.28125-6.714844-15-14.996094-15-8.285156 0-15 6.71875-15 15v65.726562l-38.292969-19.144531c-7.40625-3.703125-16.417969-.703125-20.121094 6.707031-3.707031 7.410156-.703125 16.417969 6.707031 20.125l53.917969 26.960938c5.644531 20.808593 13.195313 41.03125 22.484375 60.4375l-41.238281 4.261718c-8.238281.851563-14.230469 8.222656-13.378906 16.460938.855469 8.257812 8.238281 14.230468 16.460937 13.378906l53.449219-5.523438c21.367187 35.988282 49.003906 68.429688 81.769531 95.601563h-7.929687c-35.097657 0-67.28125-21.523437-80.09375-53.550781-2.324219-5.8125-7.925781-9.433594-13.921875-9.433594-1.320313 0-2.660156.175781-3.984375.542969-15.386719 4.230469-32.605469 6.152343-58.808594-20.300781-11.078125-11.179688-17.277344-25.191407-17.007813-38.445313.265626-12.984375 4.886719-25.449219 13.363282-36.042969 3.226562-4.03125 4.152344-9.441406 2.449218-14.316406-1.703124-4.875-5.792968-8.53125-10.828124-9.679688-20.601563-4.691406-34.992188-22.691406-34.992188-43.765624 0-11.238282 4.316406-22.070313 12.152344-30.507813 5.8125-6.253906 5.25-16.144531-1.328125-21.683594zm0 0" fill="#ffffff" data-original="#000000" style=""/></g></svg>
