<?xml version="1.0" encoding="iso-8859-1"?>
<!-- Generator: Adobe Illustrator 19.0.0, SVG Export Plug-In . SVG Version: 6.00 Build 0)  -->
<svg version="1.1" id="Capa_1" xmlns="http://www.w3.org/2000/svg" xmlns:xlink="http://www.w3.org/1999/xlink" x="0px" y="0px"
	 viewBox="0 0 511.997 511.997" style="enable-background:new 0 0 511.997 511.997;" xml:space="preserve">
<g>
	<g>
		<path d="M511.868,153.314c-2.093-23.649-27.799-33.904-51.032-32.559c-2.055-0.985-4.153-1.492-4.379-4.145
			c-2.1-24.683-17.261-46.653-39.568-57.334c-21.712-10.399-29.332-3.026-32.153-11.174c-6.072-17.544-19.418-31.69-36.615-38.81
			c-3.827-1.583-8.213,0.233-9.798,4.06c-1.584,3.826,0.233,8.213,4.06,9.798c13.237,5.48,23.509,16.364,28.18,29.859
			c2.895,8.36,10.268,14.032,18.786,14.448c7.315,0.358,14.401,2.158,21.062,5.347c17.533,8.397,29.452,25.67,31.102,45.079
			c0.205,2.412,0.864,4.712,1.906,6.803c-12.289,5.194-21.751,15.281-27.882,28.5c-24.583-28.14-56.227-49.084-91.761-60.765
			c-3.605-24.081-18.842-43.951-39.559-54.121c6.921-8.656,16.689-14.879,27.77-17.506c4.029-0.956,6.521-4.997,5.566-9.027
			c-0.956-4.029-4.99-6.521-9.027-5.566c-16.023,3.799-29.933,13.433-38.993,26.787c-4.163-1.005-8.463-1.65-12.867-1.89
			c-20.58-1.128-40.66,6.615-55.111,21.227c-2.379,2.405-5.719,3.202-8.51,2.03c-36.094-15.164-77.502-0.799-96.966,32.31
			c-0.974,1.656-2.771,2.636-4.713,2.559c-4.3-0.174-8.663-0.033-12.967,0.42c-65.325,6.872-101.28,82.579-62.235,137.771
			c3.542,5.007,4.214,11.212,1.797,16.6c-9.882,22.024-6.39,48.387,10.172,67.2C9.418,324.864,2.45,342.615,9.502,358.77
			c8.207,18.796,33.35,29.756,57.259,24.942c6.195-1.245,11.623,8.998,19.935,25.829c17.399,35.23,45.125,91.4,135.694,91.393
			c11.228-0.001,23.443-0.877,36.702-2.752c8.016,3.057,23.958,7.819,45.499,7.819c52.902,0,100.77-28.499,138.253-65.506
			c20.18-19.923,34.678-45.335,43.09-75.53c1.112-3.989-1.222-8.125-5.211-9.236c-3.989-1.114-8.125,1.222-9.236,5.211
			c-7.702,27.643-20.884,50.818-39.18,68.883c-38.428,37.939-80.373,59.041-121.299,61.025c-20.225,0.98-35.704-2.938-44.013-5.775
			c-0.007-0.008-0.013-0.016-0.019-0.023c-0.236-0.564-0.515-1.218-0.827-1.936c6.625-21.516,30.756-82.668,93.257-93.169
			c0.531-0.078,1.087-0.221,1.611-0.424c133.149-48.586,105.853-139.834,108.444-176.748c5.527,23.176,13.76,68.128,8.504,114.338
			c-0.468,4.115,2.489,7.831,6.603,8.299c4.115,0.467,7.831-2.489,8.299-6.603c6.527-57.39-6.298-111.386-11.474-130.037
			C500.443,189.964,513.448,171.16,511.868,153.314z M31.645,250.152c4.543-10.126,3.302-22.16-3.238-31.402
			c-34.231-48.384,1.127-117.039,62.352-114.546c7.464,0.314,14.467-3.505,18.251-9.943c15.69-26.691,49.093-38.321,78.227-26.084
			c8.464,3.556,18.27,1.472,24.98-5.31c30.237-30.572,83.14-18.038,95.25,24.925C172.538,55.556,44.287,162.183,51.053,300.429
			c-3.214,0.715-6.411,1.745-9.585,3.101C27.153,289.188,23.699,267.868,31.645,250.152z M68.073,368.572
			c-1.397,0-2.822,0.146-4.27,0.438c-19.004,3.824-35.845-5.453-40.554-16.241c-7.788-17.835,19.19-38.424,38.521-38.529
			c14.934-0.034,29.205,10.294,37.98,21.525c0.145,0.187,0.269,0.346,0.44,0.577c1.531,2.063,3.458,3.073,5.617,3.237
			c33.056,2.524,52.631,33.599,59.768,65.9c0.173,0.784,0.478,2.24,0.599,2.99c0.547,3.466,3.424,6.09,6.927,6.314
			c35.076,2.249,61.856,37.76,77.027,69.451C93.857,502.514,112.083,368.572,68.073,368.572z M350.179,376.49
			c-26.621,6.064-49.8,21.043-68.105,43.903c1.726-17.504,2.119-34.663,1.19-51.413c-0.001-0.308-0.022-0.615-0.061-0.919
			c-0.935-16-3.065-31.628-6.426-46.814c-0.02-0.091-0.043-0.181-0.063-0.271c0.251-4.063,1.817-21.958,10.667-43.461
			c13.327-32.377,36.028-57.241,67.47-73.898c3.659-1.939,5.055-6.478,3.116-10.138c-1.938-3.659-6.475-5.054-10.136-3.115
			c-43.38,22.982-64.492,57.301-74.565,82.046c-2.357,5.788-4.232,11.318-5.729,16.446c-0.263-0.75-0.533-1.498-0.803-2.246
			c-0.031-0.095-0.066-0.189-0.101-0.283c-6.438-17.787-14.663-34.833-24.608-50.992c2.356-10.529,13.066-50.173,45.4-77.209
			c3.178-2.657,3.6-7.386,0.943-10.563c-2.656-3.177-7.386-3.599-10.562-0.943c-27.504,22.997-40.821,53.484-46.795,72.133
			c-30.692-42.781-63.299-63.093-64.758-63.99c-3.526-2.167-8.146-1.063-10.313,2.468c-2.167,3.529-1.063,8.147,2.468,10.313
			c0.232,0.143,15.541,9.679,34.658,29.25c-28.527-3.008-50.561,4.238-51.709,4.626c-3.919,1.323-6.02,5.567-4.703,9.489
			c1.315,3.92,5.559,6.033,9.489,4.725c0.302-0.102,30.045-9.768,63.204-0.543c5.068,6.249,10.18,13.119,15.166,20.644
			c6.416,9.686,12.893,20.914,18.839,33.681c-50.628-23.359-117.7,2.684-120.939,3.97c-3.847,1.527-5.727,5.882-4.202,9.731
			s5.881,5.731,9.732,4.21c0.817-0.322,81.191-31.457,125.105,5.863c6.413,18.216,11.445,38.857,13.937,61.931
			c-15.551-8.053-43.351-19.064-75.252-16.196c-4.125,0.371-7.169,4.015-6.798,8.14c0.37,4.124,4.035,7.172,8.14,6.797
			c35.222-3.159,65.789,13.451,75.297,19.283c1.107,23.917-0.539,50.197-6.047,78.846c-2.135,4.402-3.96,8.6-5.504,12.468
			c-13.522-23.961-39.211-58.528-76.995-64.037c-8.633-36.889-31.407-70.776-69.509-75.461
			c-10.913-13.196-26.89-24.121-44.286-25.553C57.162,113.115,293.711,24.043,409.944,169.907c-0.108,0.5-0.207,0.975-0.292,1.41
			c-19.173,13.767-29.171,35.565-28.957,63.272c0.109,14.211,2.879,26.608,4.762,33.433
			C347.676,296.51,348.609,355.946,350.179,376.49z M469.935,187.152c-46.302,14.594,40.81,125.9-104.985,184.799
			c-1.148-21.504-0.167-73.417,33.287-94.546c2.965-1.873,4.232-5.558,3.059-8.862c-0.215-0.601-20.919-60.454,19.309-86.549
			c3.709-2.405,2.969-5.143,4.597-11.472c0-0.001,0.14-0.463,0.14-0.463c6.206-23.246,21.368-37.05,45.983-33.976
			C513.104,141.305,497.609,178.43,469.935,187.152z"/>
	</g>
</g>
<g>
</g>
<g>
</g>
<g>
</g>
<g>
</g>
<g>
</g>
<g>
</g>
<g>
</g>
<g>
</g>
<g>
</g>
<g>
</g>
<g>
</g>
<g>
</g>
<g>
</g>
<g>
</g>
<g>
</g>
</svg>
