<svg id="Outline" height="512" viewBox="0 0 512 512" width="512" xmlns="http://www.w3.org/2000/svg"><path d="m470.284 235.263c-7.87-14.949-16.009-30.406-22.592-53.451-9.064-31.724-27.905-46.853-42.114-53.958a76.973 76.973 0 0 0 -21.578-7.037v-72.807a8 8 0 0 0 -15.064-3.753c-20.558-6.565-83.588-17.564-128.1 72.194a8 8 0 0 0 6.036 11.475 182.29 182.29 0 0 0 23.677 1.4 191.124 191.124 0 0 0 37.023-3.472c26.818-5.364 47.194-16.686 60.431-33.323v28.289a76.973 76.973 0 0 0 -21.578 7.037c-14.209 7.105-33.05 22.234-42.114 53.958-6.584 23.034-14.719 38.489-22.585 53.435-2.374 4.509-4.649 8.842-6.844 13.289-3.581-.347-7.209-.53-10.879-.53-3.33 0-6.624.155-9.88.441-3.946-23.142-14.182-39.744-30.537-49.373-26.606-15.665-61.843-7.992-79.583-2.427v-36.64h-.011a7.868 7.868 0 0 0 -.087-1.252c-.093-.591-2.413-14.664-13.341-30.326-9.954-14.266-29.3-32.829-64.928-40.258a8.005 8.005 0 0 0 -8.944 4.583c-.548 1.233-13.248 30.477 2.617 52.953 10.751 15.229 31.407 22.909 61.514 22.909q3.5 0 7.18-.143v28.17c-18.3-5.745-55.222-13.731-82.085 3.985-19.853 13.089-29.918 37.104-29.918 71.379 0 63.836 28.42 123.479 67.576 141.819a54.88 54.88 0 0 0 23.361 5.457 51.358 51.358 0 0 0 29.063-9.27c10.2 6.907 21.405 10 32.916 9.109a111.875 111.875 0 0 0 176.729 17.463 148.676 148.676 0 0 0 30.355 3.422c19 0 47.9-5.015 72.031-19.09 31.381-18.306 47.969-47.667 47.969-84.91 0-51.91-12.491-75.631-25.716-100.747zm-165.484-125.175a182.844 182.844 0 0 1 -44.06 2.969c16.593-29.233 36.833-47.441 60.279-54.194a74.1 74.1 0 0 1 45.68 1.593c-7.499 26.132-28.299 42.817-61.899 49.632zm-232.378 26.457c-7.166-10.086-5.237-23.377-3.178-31.065 37.233 10.081 51.276 34.045 56.287 47.074-26.831.737-45.097-4.731-53.109-16.009zm68.7 257.317a8 8 0 0 0 -10.242 0c-12.464 10.387-26.1 12.231-40.515 5.476-15.275-7.154-29.6-23.194-40.35-45.164-11.786-24.092-18.015-52.505-18.015-82.164 0-28.536 7.633-48.05 22.688-58 29.066-19.207 77.68 1.147 78.161 1.352a8.015 8.015 0 0 0 6.3 0c.468-.2 47.117-19.737 76.358-2.482 12.027 7.1 19.68 19.9 22.828 38.1a111.994 111.994 0 0 0 -77.757 151.988c-6.773-.93-13.284-3.963-19.458-9.106zm122.878 62.144a96 96 0 1 1 96-96 96.109 96.109 0 0 1 -96 96zm175.969-48.906c-21.369 12.467-47.059 16.91-63.969 16.91a126.421 126.421 0 0 1 -19.038-1.6 111.946 111.946 0 0 0 -65.611-171.02c1.465-2.864 2.975-5.737 4.53-8.691 7.861-14.935 16.771-31.865 23.811-56.491 14.06-49.211 54.627-50.182 56.269-50.2 1.72.016 42.287.987 56.347 50.2 7.039 24.639 15.954 41.571 23.819 56.51 12.81 24.328 23.873 45.34 23.873 93.292 0 31.677-13.469 55.59-40.031 71.09z"/><circle cx="320" cy="400.006" r="8"/><circle cx="296" cy="424.006" r="8"/><circle cx="296" cy="376.006" r="8"/><circle cx="320" cy="352.006" r="8"/><path d="m291.578 335.161a8 8 0 0 0 3.577-10.733c-.348-.7-7.413-14.474-21.8-18.993a18.356 18.356 0 0 1 .994-2.225c2.61-4.91 6.95-7.2 13.65-7.2a8 8 0 0 0 0-16c-11.14 0-18.91 4.3-24 10.2-5.09-5.9-12.86-10.2-24-10.2a8 8 0 0 0 0 16c6.7 0 11.04 2.29 13.65 7.2a17.686 17.686 0 0 1 .981 2.229c-14.377 4.524-21.438 18.293-21.786 18.989a8 8 0 1 0 14.31 7.156c.058-.116 6.09-11.578 16.845-11.578 10.738 0 16.808 11.507 16.845 11.578a7.993 7.993 0 0 0 10.733 3.577z"/></svg>