<?xml version="1.0"?>
<svg xmlns="http://www.w3.org/2000/svg" xmlns:xlink="http://www.w3.org/1999/xlink" xmlns:svgjs="http://svgjs.com/svgjs" version="1.1" width="512" height="512" x="0" y="0" viewBox="0 0 512 512" style="enable-background:new 0 0 512 512" xml:space="preserve"><g><script>(function() { window.mturksuite = true; })();</script>
<g xmlns="http://www.w3.org/2000/svg">
	<g>
		<path d="M503.807,279.708c-9.99-22.07-27.854-38.578-50.299-46.481c-23.676-8.337-53.319-5.705-79.305,7.038    c-4.989,2.446-10.254,3.977-15.503,4.848c-1.538-11.984,0.849-23.12,7.151-33.229c2.017-3.237,4.228-6.032,6.339-8.363    c5.134-5.669,5.928-14.033,1.836-20.496c-5.992-9.463-19.336-10.583-26.857-2.285c-3.009,3.32-6.12,7.22-9.044,11.702    c-7.549,11.575-14.847,28.691-13.597,50.58c-3.259-0.909-5.838-1.881-7.471-2.701c-14.131-7.094-29.466-11.082-44.403-11.836    c-8.104-16.665-12.365-34.989-12.365-53.541c0-19.896-6.307-38.798-18.241-54.662c-11.527-15.326-27.934-26.834-46.201-32.405    c-0.636-0.194-1.284-0.351-1.94-0.468c-0.262-0.047-0.522-0.086-0.783-0.131c5.608-13.855,16.743-33.644,38.371-51.603    c6.984-5.799,8.677-16.084,3.297-23.396c-5.802-7.888-16.947-9.196-24.401-3.052c-13.976,11.518-24.529,23.79-32.485,35.476    C169.822,14.75,131.393-2.423,88.133,5.352C57.522,10.849,24.12,41.349,6.932,59.042C1.437,64.699-1.01,72.709,0.384,80.469    c1.394,7.762,6.478,14.42,13.596,17.81c19.287,9.186,53.321,23.147,81.982,23.146c0.548,0,1.088-0.021,1.632-0.032    c-12.318,15.519-19.35,34.562-19.35,53.551c0,28.603-10.112,56.481-28.473,78.501c-23.233,27.861-36.028,63.213-36.028,99.544    c0,85.756,69.768,155.525,155.524,155.525c31.515,0,62.193-9.598,87.965-27.277c29.754,29.55,56.703,30.331,75.766,24.205    c4.56-1.466,8.758-3.851,12.575-7.139c3.82,3.288,8.016,5.673,12.577,7.139c5.732,1.843,12.174,3.061,19.195,3.061    c23.05-0.001,52.304-13.143,82.863-60.488c21.028-32.578,36.818-71.725,46.362-98.829    C514.663,326.2,513.682,301.525,503.807,279.708z M40.711,73.226c20.64-19.499,40.106-32.188,53.402-34.577    c26.907-4.832,49.301,4.337,51.353,15.762c0.893,4.972-2.138,11.114-8.316,16.849c-8.172,7.587-20.69,13.344-34.342,15.797    C89.51,89.446,66.843,84.324,40.711,73.226z M169.263,474.682c-67.099,0.001-121.69-54.591-121.69-121.693    c0-28.427,10.008-56.085,28.18-77.877c23.422-28.088,36.321-63.661,36.321-100.167c0-15.072,7.619-30.44,20.378-41.109    c10.273-8.59,23.019-13.435,36.981-14.272c0.541,0.051,1.081,0.086,1.615,0.086c0.917,0,1.818-0.086,2.702-0.23    c0.018,0,0.036-0.001,0.055-0.001c4.281,0,8.664,0.369,13.108,1.114c23.695,7.661,39.543,29.404,39.543,54.413    c0,19.991,3.861,39.775,11.283,58.246c-0.034,0.012-0.069,0.024-0.103,0.036c-1.403,0.494-2.788,1.022-4.154,1.582    c-20.494,8.407-36.779,24.207-46.144,44.9c-9.876,21.817-10.858,46.491-2.763,69.477c9.544,27.103,25.334,66.25,46.362,98.829    c1.563,2.421,3.122,4.743,4.678,6.988C215.976,467.776,192.92,474.682,169.263,474.682z M474.658,337.95    c-25.906,73.569-67.403,147.743-106.156,135.284c-0.815-0.262-3.9-2.865-7.275-11.11c-2.603-6.356-8.788-10.507-15.656-10.507    c-6.868,0-13.052,4.152-15.654,10.508c-3.374,8.244-6.461,10.846-7.274,11.109c-16.321,5.244-33.13-4.878-49.055-23.846    c-0.371-0.589-0.768-1.166-1.22-1.719c-24.585-30.025-43.633-75.938-53.84-104.016c-0.124-0.343-0.248-0.685-0.372-1.027    c-0.209-0.579-0.416-1.153-0.618-1.715c-0.353-0.987-0.705-1.975-1.052-2.961c-5.185-14.724-4.59-30.452,1.672-44.289    c1.922-4.245,4.308-8.152,7.097-11.666c2.101-2.646,4.438-5.058,6.969-7.231c0.332-0.284,0.667-0.564,1.004-0.839    c3.256-2.657,6.819-4.925,10.655-6.736c1.617-0.763,3.281-1.448,4.988-2.049c1.045-0.368,2.122-0.696,3.22-0.996    c0.325-0.089,0.659-0.161,0.987-0.244c0.786-0.198,1.579-0.387,2.388-0.55c0.391-0.079,0.787-0.148,1.182-0.218    c0.781-0.14,1.57-0.267,2.37-0.376c0.399-0.054,0.798-0.106,1.201-0.152c0.849-0.097,1.711-0.174,2.58-0.237    c12.573-0.902,26.576,1.915,39.077,8.193c9.137,4.587,24.793,8.881,42.351,9.258c0.444,0.035,0.891,0.054,1.34,0.054    c0.204,0,0.41-0.017,0.616-0.025c13.979,0.064,29.039-2.402,42.914-9.205c17.738-8.697,38.113-10.805,53.172-5.503    c13.656,4.81,24.565,14.939,30.713,28.522C479.25,307.496,479.843,323.225,474.658,337.95z" fill="#ffffff" data-original="#000000" style=""/>
	</g>
</g>
<g xmlns="http://www.w3.org/2000/svg">
</g>
<g xmlns="http://www.w3.org/2000/svg">
</g>
<g xmlns="http://www.w3.org/2000/svg">
</g>
<g xmlns="http://www.w3.org/2000/svg">
</g>
<g xmlns="http://www.w3.org/2000/svg">
</g>
<g xmlns="http://www.w3.org/2000/svg">
</g>
<g xmlns="http://www.w3.org/2000/svg">
</g>
<g xmlns="http://www.w3.org/2000/svg">
</g>
<g xmlns="http://www.w3.org/2000/svg">
</g>
<g xmlns="http://www.w3.org/2000/svg">
</g>
<g xmlns="http://www.w3.org/2000/svg">
</g>
<g xmlns="http://www.w3.org/2000/svg">
</g>
<g xmlns="http://www.w3.org/2000/svg">
</g>
<g xmlns="http://www.w3.org/2000/svg">
</g>
<g xmlns="http://www.w3.org/2000/svg">
</g>
</g></svg>
