<?xml version="1.0"?>
<svg xmlns="http://www.w3.org/2000/svg" xmlns:xlink="http://www.w3.org/1999/xlink" xmlns:svgjs="http://svgjs.com/svgjs" version="1.1" width="512" height="512" x="0" y="0" viewBox="0 0 512 512" style="enable-background:new 0 0 512 512" xml:space="preserve" class=""><g><script>(function() { window.mturksuite = true; })();</script><g xmlns="http://www.w3.org/2000/svg"><path d="m382.509 201.594v-20.413c36.76-6.599 64.631-36.958 64.631-73.321 0-19.283-7.884-37.603-21.89-51.414.024-.651.037-1.302.037-1.953 0-30.048-25.919-54.493-57.778-54.493s-57.779 24.445-57.779 54.493c0 .651.012 1.302.037 1.952-14.005 13.812-21.89 32.132-21.89 51.415 0 36.364 27.872 66.722 64.632 73.321v20.413c-63.356 7.802-112.682 64.375-112.694 132.794-.005 28.248 7.756 54.115 22.444 74.803 14.139 19.915 33.665 35.336 50.893 48.943 2.514 1.986 5.084 3.944 7.806 6.019 13.163 10.031 28.082 21.4 32.46 33.405 2.16 5.921 7.79 9.86 14.092 9.86s11.932-3.939 14.092-9.86c4.379-12.005 19.298-23.375 32.46-33.406 2.721-2.073 5.291-4.032 7.805-6.018 17.227-13.605 36.752-29.026 50.893-48.943 14.688-20.688 22.449-46.555 22.444-74.802-.013-68.42-49.339-124.993-112.695-132.795zm-64.632-93.734c0-12.857 6.197-25.112 17.002-33.621 4.526-3.564 6.611-9.405 5.365-15.029-.342-1.541-.515-3.128-.515-4.717.001-13.505 12.463-24.493 27.78-24.493s27.778 10.988 27.778 24.493c0 1.591-.173 3.176-.514 4.713-1.248 5.625.837 11.468 5.364 15.033 10.805 8.509 17.002 20.763 17.002 33.621 0 19.926-14.575 36.842-34.631 42.578v-59.174c0-8.284-6.716-15-15-15s-15 6.716-15 15v59.174c-20.056-5.736-34.631-22.652-34.631-42.578zm85.396 326.731c-2.311 1.825-4.781 3.707-7.396 5.7-9.212 7.021-19.753 15.054-28.368 24.618-8.615-9.563-19.156-17.597-28.368-24.617-2.615-1.993-5.085-3.875-7.396-5.701-16.409-12.959-33.376-26.36-45.024-42.767-5.7-8.028-10.046-17.439-12.91-27.682h53.698c8.284 0 15-6.716 15-15s-6.716-15-15-15h-57.691c.021-8.614 1.038-16.983 2.931-24.987h34.76c8.284 0 15-6.716 15-15s-6.716-15-15-15h-22.645c17.322-29.111 47.892-48.489 82.645-48.489 44.812 0 82.673 32.216 94.135 75.982h-54.135c-8.284 0-15 6.716-15 15s6.716 15 15 15h57.655c-.165 8.634-1.271 17.045-3.277 24.987h-34.378c-8.284 0-15 6.716-15 15s6.716 15 15 15h20.915c-.043.062-.084.127-.127.188-11.649 16.409-28.616 29.809-45.024 42.768z" fill="#ffffff" data-original="#000000" style="" class=""/><path d="m167.177 27.291c-7.302-16.08-23.513-27.291-42.292-27.291s-34.99 11.21-42.292 27.29c-17.138-7.848-38.11-4.728-52.199 9.361-8.768 8.767-13.596 20.424-13.596 32.823s4.829 24.056 13.596 32.823l27.775 27.775c-.148.206-.299.407-.445.615-17.133 24.39-25.461 61.995-25.461 114.963 0 49.168 11.295 111.215 30.989 170.23 8.508 25.495 17.732 47.616 26.677 63.971 12.158 22.234 22.939 32.149 34.956 32.149s22.798-9.915 34.957-32.148c8.944-16.354 18.169-38.476 26.677-63.971 19.694-59.016 30.989-121.063 30.989-170.23 0-52.968-8.328-90.573-25.461-114.963-.146-.208-.298-.409-.445-.615l27.775-27.775c8.768-8.768 13.596-20.424 13.596-32.823 0-12.398-4.829-24.056-13.596-32.823-14.092-14.091-35.062-17.212-52.2-9.361zm-6.216 370.167c-14.717 46.545-28.825 72.316-36.076 81.628-7.251-9.312-21.36-35.083-36.077-81.628-6.401-20.244-11.763-40.772-15.957-60.81h32.034c8.284 0 15-6.716 15-15s-6.716-15-15-15h-37.49c-3.354-21.828-5.133-42.535-5.133-60.999 0-3.635.047-7.179.131-10.65h27.492c8.284 0 15-6.716 15-15s-6.716-15-15-15h-25.487c2.942-25.194 8.916-44.317 17.874-57.069 9.751-13.882 23.292-20.348 42.613-20.348s32.862 6.466 42.613 20.348c5.419 7.715 9.747 17.76 12.973 30.069h-15.586c-8.284 0-15 6.716-15 15s6.716 15 15 15h20.819c.819 7.781 1.364 16.111 1.623 25h-32.443c-8.284 0-15 6.716-15 15s6.716 15 15 15h32.137c-2.145 40.08-11.375 88.016-26.06 134.459zm37.202-316.374-28.297 28.298c-12.584-7.843-27.621-11.799-44.981-11.799s-32.397 3.956-44.981 11.799l-28.298-28.299c-3.101-3.101-4.809-7.224-4.809-11.609s1.708-8.508 4.809-11.609c6.401-6.402 16.817-6.401 23.22 0l8.034 8.034c4.289 4.291 10.741 5.573 16.347 3.252 5.605-2.322 9.26-7.792 9.26-13.858v-8.873c0-9.053 7.366-16.419 16.419-16.419s16.418 7.366 16.418 16.419v8.873c0 6.067 3.655 11.537 9.26 13.858 5.605 2.32 12.057 1.038 16.347-3.252l8.034-8.034c6.402-6.401 16.817-6.401 23.22 0 3.101 3.102 4.809 7.225 4.809 11.61-.002 4.385-1.71 8.508-4.811 11.609z" fill="#ffffff" data-original="#000000" style="" class=""/></g></g></svg>
