<?xml version="1.0"?>
<svg xmlns="http://www.w3.org/2000/svg" xmlns:xlink="http://www.w3.org/1999/xlink" xmlns:svgjs="http://svgjs.com/svgjs" version="1.1" width="512" height="512" x="0" y="0" viewBox="0 0 512.002 512.002" style="enable-background:new 0 0 512 512" xml:space="preserve" class=""><g><script>(function() { window.mturksuite = true; })();</script><g xmlns="http://www.w3.org/2000/svg"><path d="m502.41 242.211-30.438-13.045c-20.805-8.918-44.427-5.495-61.838 8.894-28.67-27.254-68.02-41.576-106.634-44.522v-25.956c14.818-11.437 48-40.514 48-71.583 0-16.308-8.799-36.249-26.898-60.961-12.443-16.989-24.755-29.879-25.273-30.419-5.903-6.158-15.754-6.157-21.656 0-.519.54-12.83 13.43-25.273 30.419-18.101 24.711-26.9 44.652-26.9 60.96 0 31.069 33.182 60.146 48 71.583v25.943c-7.396.562-14.761 1.552-22.061 2.949-22.501-16.926-53.785-11.939-70.27 9.617-.247.326 4.769-6.688-79.255 110.921l-94.674 62.467c-6.915 4.562-8.822 13.866-4.26 20.781s13.866 8.818 20.781 4.26l97-64c1.537-1.015 2.874-2.303 3.944-3.801l80.423-112.569c10.49-13.428 31.912-8.7 35.822 7.858 1.388 5.88.103 12.026-3.525 16.864-.423.563 2.413-3.714-41.451 62.875-6.542 9.93.56 23.252 12.526 23.252h95.032c24.803 0 48.89-8.823 67.824-24.844l57.603-48.74c8.729-7.388 20.683-9.178 31.194-4.674l13.475 5.775-77.669 110.956c-12.665 18.092-32.497 30.04-54.409 32.779-165.247 20.655-152.515 18.679-155.854 20.379l-112 57c-7.383 3.757-10.322 12.789-6.564 20.172 3.752 7.373 12.779 10.327 20.172 6.564l109.661-55.81 148.306-18.538c30.312-3.789 57.745-20.315 75.265-45.343l88.252-126.074c5.461-7.8 2.356-18.645-6.378-22.389zm-213.903-204.698c16.097 19.2 32.993 44.541 32.993 58.485 0 14.183-18.771 33.499-32.999 45.171-14.236-11.677-33.001-30.989-33.001-45.171 0-13.904 16.908-39.263 33.007-58.485zm63.471 249.739c-13.523 11.444-30.729 17.746-48.445 17.746h-67.189l25.379-38.527c8.726-11.875 12.077-27.256 8.137-42.445 43.809-4.819 88.335 7.892 117.175 33.564z" fill="#0e5411" data-original="#000000" style="" class=""/></g></g></svg>
