<?xml version="1.0"?>
<svg xmlns="http://www.w3.org/2000/svg" viewBox="0 0 512 512" width="512" height="512"><g id="outline"><path d="M481.16,249.938a13.478,13.478,0,0,0-.725-1.308,40.025,40.025,0,0,0-25.855-53.262,79.985,79.985,0,0,0-114.808-58.879,40.026,40.026,0,0,0-58.516,10.351,63.266,63.266,0,0,0-11.027-.025,87.593,87.593,0,0,0-20.8-58.6,53.838,53.838,0,0,0,29.193-21.463,8,8,0,0,0-4.455-12.191l-10.815-3.042a54.121,54.121,0,0,0-28.875-.114l-19.057,5.2a68.139,68.139,0,0,1,15.09-27.224,8,8,0,0,0-11.838-10.764,84.2,84.2,0,0,0-18.654,33.655L186.463,37.9a54.1,54.1,0,0,0-24.7-14.953l-10.817-3.042a8,8,0,0,0-10.157,8.082A53.845,53.845,0,0,0,154.5,61.505,88.013,88.013,0,1,0,213.6,227.266c.265.976.55,1.95.862,2.919a63.794,63.794,0,0,0,39.818,40.79,7.981,7.981,0,0,0-.066,1.371,112.218,112.218,0,0,1-10.91,53.256A87.638,87.638,0,0,0,183.2,309.67a8.021,8.021,0,0,1-7.833-4.029l-25.484-55.507a8,8,0,0,0-10.248-4.087l-37.126,14.889A8,8,0,0,0,97.94,271.02l20.283,57.561a8.028,8.028,0,0,1-2.884,8.3,87.674,87.674,0,0,0-32.807,83.553l.172,1.05a85.354,85.354,0,0,0,24.634,47.119l1.08,1.047a87.9,87.9,0,0,0,93.846,18.476l22.6-9.065a87.848,87.848,0,0,0,55.033-78.2l.04-1.114a85.684,85.684,0,0,0-7.1-37.642l61.493,31.537a16,16,0,0,0,21.538-6.936,112.033,112.033,0,0,1,39.5-43.349,63.863,63.863,0,0,0,36.543,11.557A64.017,64.017,0,0,0,481.16,249.938ZM174.824,48.883l23.249,24.648A8.006,8.006,0,0,0,206,75.76l32.688-8.916a38.1,38.1,0,0,1,18.57-.37,37.87,37.87,0,0,1-24.509,7.994l-7.684-.224a8,8,0,0,0-7.21,11.91,46.314,46.314,0,0,1,5.905,25.43l-.13-.088a46.847,46.847,0,0,1-14.495-15.778l-4.762-8.488a8,8,0,0,0-10.891-3.062l-8.487,4.761A46.872,46.872,0,0,1,164.4,94.838l-.156.007a46.328,46.328,0,0,1,18.3-18.623,8,8,0,0,0,.055-13.923l-6.674-3.814a37.91,37.91,0,0,1-16.748-19.6A38.1,38.1,0,0,1,174.824,48.883ZM162.739,214.364a72.024,72.024,0,0,1-6.391-136.528A62.515,62.515,0,0,0,145.062,99.93l-.373,1.321a8,8,0,0,0,8.082,10.159l12.389-.591a62.946,62.946,0,0,0,27.661-7.936l1.511-.847.847,1.51a62.938,62.938,0,0,0,19.468,21.192l10.265,6.961a8,8,0,0,0,12.191-4.452l.373-1.324a62.514,62.514,0,0,0,1.9-24.659,71.6,71.6,0,0,1,14.663,49.064,63.861,63.861,0,0,0-42.667,60.55A71.98,71.98,0,0,1,162.739,214.364Zm100.6,124.886-7.119-3.651a128.226,128.226,0,0,0,14.057-61.281,64.689,64.689,0,0,0,21.044-1.834l-.43,1.651A218.627,218.627,0,0,1,273.9,318.641Zm.615,59.907-.041,1.118a71.846,71.846,0,0,1-31.646,56.859l7.372-11.523a61.286,61.286,0,0,0-10.95-78.867l-3.972-3.524A8,8,0,1,0,214.1,375.188l3.971,3.523a45.285,45.285,0,0,1,8.091,58.278l-6.9,10.787.544-23.18a52.258,52.258,0,0,0-3.763-20.8,52.9,52.9,0,0,0-21.5-25.357,8,8,0,0,0-8.307,13.675,36.79,36.79,0,0,1,14.952,17.638,36.344,36.344,0,0,1,2.617,14.468l-.777,33.1L179.593,433.93a36.362,36.362,0,0,1-8.106-12.267,36.794,36.794,0,0,1-1.379-23.082,8,8,0,1,0-15.453-4.145,52.885,52.885,0,0,0,1.983,33.182,52.265,52.265,0,0,0,11.651,17.635L184.7,461.635l-12.443-3.03a45.283,45.283,0,0,1-34.419-47.718l.436-5.291a8,8,0,1,0-15.945-1.316l-.436,5.292a61.284,61.284,0,0,0,46.579,64.579l13.293,3.237a71.915,71.915,0,0,1-62.208-19.219l-1.08-1.047A69.232,69.232,0,0,1,98.5,418.909l-.174-1.063a71.688,71.688,0,0,1,26.825-68.319,23.973,23.973,0,0,0,8.437-25.444c-.049-.175-.1-.349-.164-.52l-17.841-50.63,4.2-1.686,14.89,37.125a72.353,72.353,0,0,1-5.29,64.181,8,8,0,1,0,13.674,8.307A88.138,88.138,0,0,0,155.694,339.3a88.126,88.126,0,0,0,37.854,21.313,8,8,0,1,0,4.144-15.454,72.343,72.343,0,0,1-48.17-42.741h0l-14.889-37.125,3.887-1.559,22.425,48.847q.1.224.22.442a23.983,23.983,0,0,0,23.681,12.564,71.68,71.68,0,0,1,66.591,30.843l.276.405A69.821,69.821,0,0,1,263.951,399.157Zm66.9-51.311-10.57,20.609-14.237-7.3L324.3,325.562a8,8,0,1,0-14.237-7.3L291.81,353.852l-14.237-7.3,10.569-20.609a234.6,234.6,0,0,0,18.228-47.768l3.171-12.154a8.046,8.046,0,0,0,.24-1.5,63.549,63.549,0,0,0,5.508-3.919,80.272,80.272,0,0,0,16.866,14.586l-7.489,14.6a8,8,0,1,0,14.236,7.3l7.489-14.6a80.29,80.29,0,0,0,21.687,5.185,63.386,63.386,0,0,0,.024,6.54l-9.093,10.96A234.623,234.623,0,0,0,330.853,347.846Zm10.786,31.561-7.118-3.651,10.568-20.608a218.692,218.692,0,0,1,26.234-39.762l1.091-1.315a64.636,64.636,0,0,0,10.789,18.16A128.028,128.028,0,0,0,341.639,379.407ZM474.7,312.788A48,48,0,0,1,410.087,333.6a48.186,48.186,0,0,1-25.181-52.028,8,8,0,0,0-7.846-9.557l-.17,0A64.089,64.089,0,0,1,322.863,244.3a8,8,0,0,0-12.438-.934,48.186,48.186,0,0,1-56.945,9.909,48,48,0,0,1-20.8-64.615,48.257,48.257,0,0,1,51.576-25.27,5.558,5.558,0,0,1,1.941.393,48.4,48.4,0,0,1,22.4,12.1,8,8,0,1,0,11.06-11.562,64.064,64.064,0,0,0-21.225-13.46,24.015,24.015,0,0,1,34.332.828,8,8,0,0,0,9.961,1.421,63.985,63.985,0,0,1,96.645,49.564,8,8,0,0,0,6.966,7.261,24.017,24.017,0,0,1,20.756,27.069c-1.755-.961-3.684-1.94-5.888-3.07a63.911,63.911,0,0,0-33.527-6.915,8,8,0,1,0,1.094,15.963,48.152,48.152,0,0,1,36.175,12.974c.064.066.124.135.191.2a47.144,47.144,0,0,1,3.989,4.308l.011.013A48.322,48.322,0,0,1,474.7,312.788Z"/><path d="M143.727,134.224a8,8,0,1,0-15.4-4.332,55.749,55.749,0,0,0,.6,32.342,8,8,0,1,0,15.224-4.921A39.791,39.791,0,0,1,143.727,134.224Z"/><path d="M171.4,183.56a39.916,39.916,0,0,1-12.22-5.8,8,8,0,1,0-9.217,13.079,55.877,55.877,0,0,0,17.1,8.123,8,8,0,1,0,4.332-15.4Z"/></g></svg>
